<svg version="1" xmlns="http://www.w3.org/2000/svg" width="1066.667" height="1066.667" viewBox="0 0 800.000000 800.000000"><path d="M441.7 59.2c-1.5 1.2-1.7 18.6-2 244.3-.3 216.3-.5 244.2-2 254-1.6 11.3-3.2 19.1-6.2 30.5-5.9 23.1-21.9 38.7-45.5 44.6-10.8 2.7-42.8 2.7-51.5.1-12.5-3.8-21.5-8.7-29.2-16-4.2-3.9-14.3-16.7-14.3-18.1 0-.3-1.3-3.3-2.9-6.6-2.8-5.8-6.7-19.4-9.2-32.5-1.3-6.4-2.3-16.2-3.5-31.8-.4-5.3-1.2-10.1-1.8-10.6-1.2-.9-11.9-.2-35.1 2.4-7.7.9-18.3 2-23.5 2.5-5.2.6-11.3 1.4-13.5 1.9-2.2.6-7.4 1.2-11.5 1.5-6.6.5-25.2 2.5-41 4.5-3 .3-6.1 1-6.7 1.4-3.3 2.1 1 56.7 5.6 72.7.6 1.9 1.8 6.6 2.6 10.5 1.7 7.3 3.9 14.6 5.4 18 .5 1.1 2.2 5.4 3.7 9.5 4.8 13.2 14 29.7 23.6 42.8 5.2 7 22.1 24.5 28.3 29.4 14 10.8 41.8 26.8 46.6 26.8.8 0 1.9.4 2.4.8 1.4 1.2 8.8 3.8 18 6.2 7.6 2.1 10 2.7 20.3 5 16.9 3.9 79 4.9 101.2 1.7 14.3-2 21.1-3.3 25.3-4.6 1.7-.5 6.1-1.7 9.7-2.6 6.2-1.6 8.6-2.4 19-6 16.8-6 38.4-18.7 56-33 3.2-2.6 19.9-19.3 22.5-22.5 13.4-16.5 24.9-35.8 30.5-51.5 1.2-3.3 2.8-7.4 3.5-9 2.3-5.2 8.1-31.1 10.4-46 4.4-28.2 4.4-28.8 4.8-279.8.3-183.5.2-239.2-.8-240.3-1-1.2-11.4-1.4-69.3-1.4-53 0-68.6.3-69.9 1.2z"/></svg>