<?xml version="1.0" encoding="UTF-8" standalone="no"?>
<!-- Created with Inkscape (http://www.inkscape.org/) -->
<svg
   xmlns:dc="http://purl.org/dc/elements/1.1/"
   xmlns:cc="http://web.resource.org/cc/"
   xmlns:rdf="http://www.w3.org/1999/02/22-rdf-syntax-ns#"
   xmlns:svg="http://www.w3.org/2000/svg"
   xmlns="http://www.w3.org/2000/svg"
   xmlns:sodipodi="http://sodipodi.sourceforge.net/DTD/sodipodi-0.dtd"
   xmlns:inkscape="http://www.inkscape.org/namespaces/inkscape"
   width="360"
   height="12"
   id="svg2"
   sodipodi:version="0.32"
   inkscape:version="0.45.1"
   version="1.0"
   sodipodi:docbase="/home/mitch/sw/divbrowser/img"
   sodipodi:docname="chevron.svg"
   inkscape:output_extension="org.inkscape.output.svg.inkscape">
  <defs
     id="defs4" />
  <sodipodi:namedview
     id="base"
     pagecolor="#fdff39"
     bordercolor="#666666"
     borderopacity="1.0"
     gridtolerance="10000"
     guidetolerance="10"
     objecttolerance="10"
     inkscape:pageopacity="0"
     inkscape:pageshadow="2"
     inkscape:zoom="1.979899"
     inkscape:cx="275.38134"
     inkscape:cy="-2.7630473"
     inkscape:document-units="px"
     inkscape:current-layer="layer1"
     width="360px"
     height="12px"
     showgrid="true"
     inkscape:grid-points="true"
     inkscape:grid-bbox="true"
     inkscape:window-width="1920"
     inkscape:window-height="999"
     inkscape:window-x="0"
     inkscape:window-y="27" />
  <metadata
     id="metadata7">
    <rdf:RDF>
      <cc:Work
         rdf:about="">
        <dc:format>image/svg+xml</dc:format>
        <dc:type
           rdf:resource="http://purl.org/dc/dcmitype/StillImage" />
      </cc:Work>
    </rdf:RDF>
  </metadata>
  <g
     inkscape:label="Layer 1"
     inkscape:groupmode="layer"
     id="layer1">
    <path
       style="fill:none;fill-rule:evenodd;stroke:#000000;stroke-width:2;stroke-linecap:butt;stroke-linejoin:miter;stroke-miterlimit:4;stroke-dasharray:none;stroke-opacity:1"
       d="M -9,-16 L 366,-16"
       id="path2160" />
    <path
       style="fill:#000000;fill-rule:evenodd;stroke:none;stroke-width:1px;stroke-linecap:butt;stroke-linejoin:miter;stroke-opacity:1;fill-opacity:1"
       d="M 45,6 L 30,0 L 15,0 L 30,6 L 15,12 L 30,12 L 45,6 z "
       id="path3138"
       sodipodi:nodetypes="ccccccc" />
    <path
       style="fill:#000000;fill-rule:evenodd;stroke:none;stroke-width:1px;stroke-linecap:butt;stroke-linejoin:miter;stroke-opacity:1;fill-opacity:1"
       d="M -15,0 L 0,6 L -15,12 L 0,12 L 15,6 L 0,0 L -15,0 z "
       id="path3140" />
    <path
       style="fill:#000000;fill-rule:evenodd;stroke:none;stroke-width:1px;stroke-linecap:butt;stroke-linejoin:miter;stroke-opacity:1;fill-opacity:1"
       d="M 105,6 L 90,0 L 75,0 L 90,6 L 75,12 L 90,12 L 105,6 z "
       id="path3143"
       sodipodi:nodetypes="ccccccc" />
    <path
       style="fill:#000000;fill-rule:evenodd;stroke:none;stroke-width:1px;stroke-linecap:butt;stroke-linejoin:miter;stroke-opacity:1;fill-opacity:1"
       d="M 45,0 L 60,6 L 45,12 L 60,12 L 75,6 L 60,0 L 45,0 z "
       id="path3145" />
    <path
       style="fill:#000000;fill-rule:evenodd;stroke:none;stroke-width:1px;stroke-linecap:butt;stroke-linejoin:miter;stroke-opacity:1;fill-opacity:1"
       d="M 105,0 L 120,6 L 105,12 L 120,12 L 135,6 L 120,0 L 105,0 z M 135,0 L 150,6 L 135,12 L 150,12 L 165,6 L 150,0 L 135,0 z M 165,0 L 180,6 L 165,12 L 180,12 L 195,6 L 180,0 L 165,0 z M 195,0 L 210,6 L 195,12 L 210,12 L 225,6 L 210,0 L 195,0 z "
       id="path3147" />
    <path
       style="fill:#000000;fill-rule:evenodd;stroke:none;stroke-width:1px;stroke-linecap:butt;stroke-linejoin:miter;stroke-opacity:1;fill-opacity:1"
       d="M 285,6 L 270,0 L 255,0 L 270,6 L 255,12 L 270,12 L 285,6 z "
       id="path3156"
       sodipodi:nodetypes="ccccccc" />
    <path
       style="fill:#000000;fill-rule:evenodd;stroke:none;stroke-width:1px;stroke-linecap:butt;stroke-linejoin:miter;stroke-opacity:1;fill-opacity:1"
       d="M 225,0 L 240,6 L 225,12 L 240,12 L 255,6 L 240,0 L 225,0 z "
       id="path3158" />
    <path
       style="fill:#000000;fill-rule:evenodd;stroke:none;stroke-width:1px;stroke-linecap:butt;stroke-linejoin:miter;stroke-opacity:1;fill-opacity:1"
       d="M 345,6 L 330,0 L 315,0 L 330,6 L 315,12 L 330,12 L 345,6 z "
       id="path3160"
       sodipodi:nodetypes="ccccccc" />
    <path
       style="fill:#000000;fill-rule:evenodd;stroke:none;stroke-width:1px;stroke-linecap:butt;stroke-linejoin:miter;stroke-opacity:1;fill-opacity:1"
       d="M 285,0 L 300,6 L 285,12 L 300,12 L 315,6 L 300,0 L 285,0 z "
       id="path3162" />
    <path
       style="fill:#000000;fill-rule:evenodd;stroke:none;stroke-width:1px;stroke-linecap:butt;stroke-linejoin:miter;stroke-opacity:1;fill-opacity:1"
       d="M 345,0 L 360,6 L 345,12 L 360,12 L 375,6 L 360,0 L 345,0 z M 375,0 L 390,6 L 375,12 L 390,12 L 405,6 L 390,0 L 375,0 z M 405,0 L 420,6 L 405,12 L 420,12 L 435,6 L 420,0 L 405,0 z M 435,0 L 450,6 L 435,12 L 450,12 L 465,6 L 450,0 L 435,0 z "
       id="path3164" />
  </g>
</svg>
