<?xml version="1.0" encoding="UTF-8" standalone="no"?>
<!-- Created with Inkscape (http://www.inkscape.org/) -->
<svg
   xmlns:dc="http://purl.org/dc/elements/1.1/"
   xmlns:cc="http://web.resource.org/cc/"
   xmlns:rdf="http://www.w3.org/1999/02/22-rdf-syntax-ns#"
   xmlns:svg="http://www.w3.org/2000/svg"
   xmlns="http://www.w3.org/2000/svg"
   xmlns:sodipodi="http://sodipodi.sourceforge.net/DTD/sodipodi-0.dtd"
   xmlns:inkscape="http://www.inkscape.org/namespaces/inkscape"
   width="360"
   height="8"
   id="svg2"
   sodipodi:version="0.32"
   inkscape:version="0.45.1"
   version="1.0"
   sodipodi:docbase="/home/mitch/sw/divbrowser/img"
   sodipodi:docname="chevron.svg"
   inkscape:output_extension="org.inkscape.output.svg.inkscape"
   inkscape:export-filename="/home/mitch/sw/divbrowser/img/chevron.png"
   inkscape:export-xdpi="90"
   inkscape:export-ydpi="90">
  <defs
     id="defs4" />
  <sodipodi:namedview
     id="base"
     pagecolor="#edd121"
     bordercolor="#666666"
     borderopacity="1.0"
     gridtolerance="10000"
     guidetolerance="10"
     objecttolerance="10"
     inkscape:pageopacity="1"
     inkscape:pageshadow="2"
     inkscape:zoom="2.8"
     inkscape:cx="217.66595"
     inkscape:cy="1.0250247"
     inkscape:document-units="px"
     inkscape:current-layer="layer1"
     width="360px"
     height="8px"
     showgrid="true"
     inkscape:grid-points="true"
     inkscape:grid-bbox="true"
     inkscape:window-width="1920"
     inkscape:window-height="999"
     inkscape:window-x="0"
     inkscape:window-y="27" />
  <metadata
     id="metadata7">
    <rdf:RDF>
      <cc:Work
         rdf:about="">
        <dc:format>image/svg+xml</dc:format>
        <dc:type
           rdf:resource="http://purl.org/dc/dcmitype/StillImage" />
      </cc:Work>
    </rdf:RDF>
  </metadata>
  <g
     inkscape:label="Layer 1"
     inkscape:groupmode="layer"
     id="layer1">
    <path
       style="fill:none;fill-rule:evenodd;stroke:#000000;stroke-width:2;stroke-linecap:butt;stroke-linejoin:miter;stroke-miterlimit:4;stroke-dasharray:none;stroke-opacity:1"
       d="M -9,-16 L 366,-16"
       id="path2160" />
    <path
       style="fill:#b49100;fill-opacity:1;fill-rule:evenodd;stroke:none;stroke-width:1px;stroke-linecap:butt;stroke-linejoin:miter;stroke-opacity:1"
       d="M 45,4 L 30,-2 L 15,-2 L 30,4 L 15,10 L 30,10 L 45,4 z "
       id="path3138"
       sodipodi:nodetypes="ccccccc" />
    <path
       style="fill:#b49100;fill-opacity:1;fill-rule:evenodd;stroke:none;stroke-width:1px;stroke-linecap:butt;stroke-linejoin:miter;stroke-opacity:1"
       d="M -15,-2 L 0,4 L -15,10 L 0,10 L 15,4 L 0,-2 L -15,-2 z "
       id="path3140" />
    <path
       style="fill:#b49100;fill-opacity:1;fill-rule:evenodd;stroke:none;stroke-width:1px;stroke-linecap:butt;stroke-linejoin:miter;stroke-opacity:1"
       d="M 105,4 L 90,-2 L 75,-2 L 90,4 L 75,10 L 90,10 L 105,4 z "
       id="path3143"
       sodipodi:nodetypes="ccccccc" />
    <path
       style="fill:#b49100;fill-opacity:1;fill-rule:evenodd;stroke:none;stroke-width:1px;stroke-linecap:butt;stroke-linejoin:miter;stroke-opacity:1"
       d="M 45,-2 L 60,4 L 45,10 L 60,10 L 75,4 L 60,-2 L 45,-2 z "
       id="path3145" />
    <path
       style="fill:#b49100;fill-opacity:1;fill-rule:evenodd;stroke:none;stroke-width:1px;stroke-linecap:butt;stroke-linejoin:miter;stroke-opacity:1"
       d="M 105,-2 L 120,4 L 105,10 L 120,10 L 135,4 L 120,-2 L 105,-2 z M 135,-2 L 150,4 L 135,10 L 150,10 L 165,4 L 150,-2 L 135,-2 z M 165,-2 L 180,4 L 165,10 L 180,10 L 195,4 L 180,-2 L 165,-2 z M 195,-2 L 210,4 L 195,10 L 210,10 L 225,4 L 210,-2 L 195,-2 z "
       id="path3147" />
    <path
       style="fill:#b49100;fill-opacity:1;fill-rule:evenodd;stroke:none;stroke-width:1px;stroke-linecap:butt;stroke-linejoin:miter;stroke-opacity:1"
       d="M 285,4 L 270,-2 L 255,-2 L 270,4 L 255,10 L 270,10 L 285,4 z "
       id="path3156"
       sodipodi:nodetypes="ccccccc" />
    <path
       style="fill:#b49100;fill-opacity:1;fill-rule:evenodd;stroke:none;stroke-width:1px;stroke-linecap:butt;stroke-linejoin:miter;stroke-opacity:1"
       d="M 225,-2 L 240,4 L 225,10 L 240,10 L 255,4 L 240,-2 L 225,-2 z "
       id="path3158" />
    <path
       style="fill:#b49100;fill-opacity:1;fill-rule:evenodd;stroke:none;stroke-width:1px;stroke-linecap:butt;stroke-linejoin:miter;stroke-opacity:1"
       d="M 345,4 L 330,-2 L 315,-2 L 330,4 L 315,10 L 330,10 L 345,4 z "
       id="path3160"
       sodipodi:nodetypes="ccccccc" />
    <path
       style="fill:#b49100;fill-opacity:1;fill-rule:evenodd;stroke:none;stroke-width:1px;stroke-linecap:butt;stroke-linejoin:miter;stroke-opacity:1"
       d="M 285,-2 L 300,4 L 285,10 L 300,10 L 315,4 L 300,-2 L 285,-2 z "
       id="path3162" />
    <path
       style="fill:#b49100;fill-opacity:1;fill-rule:evenodd;stroke:none;stroke-width:1px;stroke-linecap:butt;stroke-linejoin:miter;stroke-opacity:1"
       d="M 345,-2 L 360,4 L 345,10 L 360,10 L 375,4 L 360,-2 L 345,-2 z M 375,-2 L 390,4 L 375,10 L 390,10 L 405,4 L 390,-2 L 375,-2 z M 405,-2 L 420,4 L 405,10 L 420,10 L 435,4 L 420,-2 L 405,-2 z M 435,-2 L 450,4 L 435,10 L 450,10 L 465,4 L 450,-2 L 435,-2 z "
       id="path3164" />
  </g>
</svg>
