<?xml version="1.0" encoding="UTF-8" standalone="no"?>
<!-- Created with Inkscape (http://www.inkscape.org/) -->
<svg
   xmlns:dc="http://purl.org/dc/elements/1.1/"
   xmlns:cc="http://web.resource.org/cc/"
   xmlns:rdf="http://www.w3.org/1999/02/22-rdf-syntax-ns#"
   xmlns:svg="http://www.w3.org/2000/svg"
   xmlns="http://www.w3.org/2000/svg"
   xmlns:xlink="http://www.w3.org/1999/xlink"
   xmlns:sodipodi="http://sodipodi.sourceforge.net/DTD/sodipodi-0.dtd"
   xmlns:inkscape="http://www.inkscape.org/namespaces/inkscape"
   width="300"
   height="12"
   id="svg5087"
   sodipodi:version="0.32"
   inkscape:version="0.45"
   version="1.0"
   sodipodi:docbase="/home/mitch/sw/newclient"
   sodipodi:docname="helix3-green.svg"
   inkscape:output_extension="org.inkscape.output.svg.inkscape"
   inkscape:export-filename="/home/mitch/sw/newclient/helix3-green.png"
   inkscape:export-xdpi="90"
   inkscape:export-ydpi="90"
   sodipodi:modified="TRUE">
  <defs
     id="defs5089">
    <linearGradient
       id="linearGradient6306">
      <stop
         style="stop-color:#ffffff;stop-opacity:1;"
         offset="0"
         id="stop6308" />
      <stop
         id="stop6310"
         offset="0.5"
         style="stop-color:#a2f09b;stop-opacity:1;" />
      <stop
         style="stop-color:#ffffff;stop-opacity:1;"
         offset="1"
         id="stop6312" />
    </linearGradient>
    <linearGradient
       id="linearGradient6135">
      <stop
         id="stop6137"
         offset="0"
         style="stop-color:#ffffff;stop-opacity:1;" />
      <stop
         style="stop-color:#ffafaf;stop-opacity:1;"
         offset="0.5"
         id="stop6139" />
      <stop
         id="stop6141"
         offset="1"
         style="stop-color:#ffffff;stop-opacity:1;" />
    </linearGradient>
    <linearGradient
       id="linearGradient5017">
      <stop
         style="stop-color:#ffffff;stop-opacity:1;"
         offset="0"
         id="stop5019" />
      <stop
         id="stop5025"
         offset="0.5"
         style="stop-color:#afc0ff;stop-opacity:1;" />
      <stop
         style="stop-color:#ffffff;stop-opacity:1;"
         offset="1"
         id="stop5021" />
    </linearGradient>
    <linearGradient
       inkscape:collect="always"
       xlink:href="#linearGradient6306"
       id="linearGradient5023"
       x1="70.019028"
       y1="0"
       x2="70.019028"
       y2="11.005665"
       gradientUnits="userSpaceOnUse"
       gradientTransform="scale(1,1.0909091)" />
  </defs>
  <sodipodi:namedview
     id="base"
     pagecolor="#ffffff"
     bordercolor="#666666"
     borderopacity="1.0"
     gridtolerance="10000"
     guidetolerance="10"
     objecttolerance="10"
     inkscape:pageopacity="1"
     inkscape:pageshadow="2"
     inkscape:zoom="11.2"
     inkscape:cx="41.959791"
     inkscape:cy="8.5213948"
     inkscape:document-units="px"
     inkscape:current-layer="layer1"
     width="300px"
     height="12px"
     inkscape:grid-points="true"
     showgrid="true"
     inkscape:window-width="1483"
     inkscape:window-height="784"
     inkscape:window-x="98"
     inkscape:window-y="53"
     showguides="true"
     inkscape:guide-bbox="true"
     inkscape:grid-bbox="false" />
  <metadata
     id="metadata5092">
    <rdf:RDF>
      <cc:Work
         rdf:about="">
        <dc:format>image/svg+xml</dc:format>
        <dc:type
           rdf:resource="http://purl.org/dc/dcmitype/StillImage" />
      </cc:Work>
    </rdf:RDF>
  </metadata>
  <g
     inkscape:label="Layer 1"
     inkscape:groupmode="layer"
     id="layer1">
    <rect
       style="fill:url(#linearGradient5023);fill-opacity:1;stroke:none;stroke-width:2;stroke-miterlimit:4;stroke-dasharray:none;stroke-opacity:1"
       id="rect4046"
       width="300"
       height="12"
       x="0"
       y="0" />
    <path
       id="path3284"
       style="fill:none;fill-rule:evenodd;stroke:#404040;stroke-width:1px;stroke-linecap:butt;stroke-linejoin:miter;stroke-opacity:1"
       d="M 318,5 C 314,-2 302,-1 304,7 C 305.76569,14.062744 312,12 308,5 C 304,-2 292,-1 294,7 C 295.76569,14.062744 302,12 298,5 C 294,-2 282,-1 284,7 C 285.76569,14.062744 292,12 288,5 C 284,-2 272,-1 274,7 C 275.76569,14.062744 282,12 278,5 C 274,-2 262,-1 264,7 C 265.76569,14.062744 272,12 268,5 C 264,-2 252,-1 254,7 C 255.76569,14.062744 262,12 258,5 C 254,-2 242,-1 244,7 C 245.76569,14.062744 252,12 248,5 C 244,-2 232,-1 234,7 C 235.76569,14.062744 242,12 238,5 C 234,-2 222,-1 224,7 C 225.76569,14.062744 232,12 228,5 C 224,-2 212,-1 214,7 C 215.76569,14.062744 222,12 218,5 C 214,-2 202,-1 204,7 C 205.76569,14.062744 212,12 208,5 C 204,-2 192,-1 194,7 C 195.76569,14.062744 202,12 198,5 C 194,-2 182,-1 184,7 C 185.76569,14.062744 192,12 188,5 C 184,-2 172,-1 174,7 C 175.76569,14.062744 182,12 178,5 C 174,-2 162,-1 164,7 C 165.76569,14.062744 172,12 168,5 C 164,-2 152,-1 154,7 C 155.76569,14.062744 162,12 158,5 C 154,-2 142,-1 144,7 C 145.76569,14.062744 152,12 148,5 C 144,-2 132,-1 134,7 C 135.76569,14.062744 142,12 138,5 C 134,-2 122,-1 124,7 C 125.76569,14.062744 132,12 128,5 C 124,-2 112,-1 114,7 C 115.76569,14.062744 122,12 118,5 C 114,-2 102,-1 104,7 C 105.76569,14.062744 112,12 108,5 C 104,-2 92,-1 94,7 C 95.765686,14.062744 102,12 98,5 C 94,-2 82,-1 84,7 C 85.765686,14.062744 92,12 88,5 C 84,-2 72,-1 74,7 C 75.765686,14.062744 82,12 78,5 C 74,-2 62,-1 64,7 C 65.765686,14.062744 72,12 68,5 C 64,-2 52,-1 54,7 C 55.765686,14.062744 62,12 58,5 C 54,-2 42,-1 44,7 C 45.765686,14.062744 52,12 48,5 C 44,-2 32,-1 34,7 C 35.765686,14.062744 42,12 38,5 C 34,-2 22,-1 24,7 C 25.765686,14.062744 32,12 28,5 C 24,-2 12,-1 14,7 C 15.765686,14.062744 22,12 18,5 C 14,-2 2,-1 4,7 C 5.765686,14.062744 12,12 8,5 C 4,-2 -8,-1 -6,7 C -4.234314,14.062744 2,12 -2,5"
       sodipodi:nodetypes="cssssssssssssssssssssssssssssssszsssssssssssssssssssssssssssssssc" />
  </g>
</svg>
