<?xml version="1.0" encoding="UTF-8" standalone="no"?>
<!-- Created with Inkscape (http://www.inkscape.org/) -->
<svg
   xmlns:dc="http://purl.org/dc/elements/1.1/"
   xmlns:cc="http://web.resource.org/cc/"
   xmlns:rdf="http://www.w3.org/1999/02/22-rdf-syntax-ns#"
   xmlns:svg="http://www.w3.org/2000/svg"
   xmlns="http://www.w3.org/2000/svg"
   xmlns:sodipodi="http://sodipodi.sourceforge.net/DTD/sodipodi-0.dtd"
   xmlns:inkscape="http://www.inkscape.org/namespaces/inkscape"
   width="300"
   height="12"
   id="svg5087"
   sodipodi:version="0.32"
   inkscape:version="0.45"
   version="1.0"
   sodipodi:docbase="/home/mitch/sw/newclient"
   sodipodi:docname="plus-pacman.svg"
   inkscape:output_extension="org.inkscape.output.svg.inkscape"
   inkscape:export-filename="/home/mitch/sw/newclient/plus-pacman.png"
   inkscape:export-xdpi="90"
   inkscape:export-ydpi="90"
   sodipodi:modified="TRUE">
  <defs
     id="defs5089">
    <linearGradient
       id="linearGradient6306">
      <stop
         style="stop-color:#ffffff;stop-opacity:1;"
         offset="0"
         id="stop6308" />
      <stop
         id="stop6310"
         offset="0.5"
         style="stop-color:#a2f09b;stop-opacity:1;" />
      <stop
         style="stop-color:#ffffff;stop-opacity:1;"
         offset="1"
         id="stop6312" />
    </linearGradient>
    <linearGradient
       id="linearGradient6135">
      <stop
         id="stop6137"
         offset="0"
         style="stop-color:#ffffff;stop-opacity:1;" />
      <stop
         style="stop-color:#ffafaf;stop-opacity:1;"
         offset="0.5"
         id="stop6139" />
      <stop
         id="stop6141"
         offset="1"
         style="stop-color:#ffffff;stop-opacity:1;" />
    </linearGradient>
    <linearGradient
       id="linearGradient5017">
      <stop
         style="stop-color:#ffffff;stop-opacity:1;"
         offset="0"
         id="stop5019" />
      <stop
         id="stop5025"
         offset="0.5"
         style="stop-color:#afc0ff;stop-opacity:1;" />
      <stop
         style="stop-color:#ffffff;stop-opacity:1;"
         offset="1"
         id="stop5021" />
    </linearGradient>
  </defs>
  <sodipodi:namedview
     id="base"
     pagecolor="#ffffff"
     bordercolor="#666666"
     borderopacity="1.0"
     gridtolerance="10000"
     guidetolerance="10"
     objecttolerance="10"
     inkscape:pageopacity="1"
     inkscape:pageshadow="2"
     inkscape:zoom="11.2"
     inkscape:cx="57.111772"
     inkscape:cy="-0.80986267"
     inkscape:document-units="px"
     inkscape:current-layer="layer1"
     width="300px"
     height="12px"
     inkscape:grid-points="true"
     showgrid="true"
     inkscape:window-width="1483"
     inkscape:window-height="795"
     inkscape:window-x="98"
     inkscape:window-y="42"
     showguides="true"
     inkscape:guide-bbox="true" />
  <metadata
     id="metadata5092">
    <rdf:RDF>
      <cc:Work
         rdf:about="">
        <dc:format>image/svg+xml</dc:format>
        <dc:type
           rdf:resource="http://purl.org/dc/dcmitype/StillImage" />
      </cc:Work>
    </rdf:RDF>
  </metadata>
  <g
     inkscape:label="Layer 1"
     inkscape:groupmode="layer"
     id="layer1">
    <rect
       style="fill:#000000;fill-opacity:1;stroke:none;stroke-width:2;stroke-miterlimit:4;stroke-dasharray:none;stroke-opacity:1"
       id="rect4046"
       width="300"
       height="12"
       x="0"
       y="0" />
    <path
       sodipodi:type="arc"
       style="fill:#fff71e;fill-opacity:1;stroke:none;stroke-width:2;stroke-linecap:butt;stroke-miterlimit:4;stroke-dasharray:none;stroke-opacity:1"
       id="path10515"
       sodipodi:cx="11.5"
       sodipodi:cy="5.5"
       sodipodi:rx="4.5"
       sodipodi:ry="4.5"
       d="M 16,5.5 A 4.5,4.5 0 1 1 13.988225,1.750502 L 11.5,5.5 z"
       sodipodi:start="0"
       sodipodi:end="5.2982763"
       transform="matrix(0.8660254,0.5,-0.5,0.8660254,-0.2092921,-4.5131397)" />
    <path
       sodipodi:type="arc"
       style="fill:#ffffff;fill-opacity:1;stroke:none;stroke-width:2;stroke-linecap:butt;stroke-miterlimit:4;stroke-dasharray:none;stroke-opacity:1"
       id="path11494"
       sodipodi:cx="21.5"
       sodipodi:cy="-7.5"
       sodipodi:rx="1.5"
       sodipodi:ry="1.5"
       d="M 23 -7.5 A 1.5 1.5 0 1 1  20,-7.5 A 1.5 1.5 0 1 1  23 -7.5 z"
       transform="translate(-6.5,13.5)" />
    <path
       sodipodi:type="arc"
       style="fill:#ffffff;fill-opacity:1;stroke:none;stroke-width:2;stroke-linecap:butt;stroke-miterlimit:4;stroke-dasharray:none;stroke-opacity:1"
       id="path11496"
       sodipodi:cx="21.5"
       sodipodi:cy="-7.5"
       sodipodi:rx="1.5"
       sodipodi:ry="1.5"
       d="M 23 -7.5 A 1.5 1.5 0 1 1  20,-7.5 A 1.5 1.5 0 1 1  23 -7.5 z"
       transform="translate(-0.5,13.5)" />
    <path
       sodipodi:type="arc"
       style="fill:#ffffff;fill-opacity:1;stroke:none;stroke-width:2;stroke-linecap:butt;stroke-miterlimit:4;stroke-dasharray:none;stroke-opacity:1"
       id="path11498"
       sodipodi:cx="21.5"
       sodipodi:cy="-7.5"
       sodipodi:rx="1.5"
       sodipodi:ry="1.5"
       d="M 23 -7.5 A 1.5 1.5 0 1 1  20,-7.5 A 1.5 1.5 0 1 1  23 -7.5 z"
       transform="translate(5.5,13.5)" />
    <path
       sodipodi:type="arc"
       style="fill:#fff71e;fill-opacity:1;stroke:none;stroke-width:2;stroke-linecap:butt;stroke-miterlimit:4;stroke-dasharray:none;stroke-opacity:1"
       id="path11500"
       sodipodi:cx="11.5"
       sodipodi:cy="5.5"
       sodipodi:rx="4.5"
       sodipodi:ry="4.5"
       d="M 16,5.5 A 4.5,4.5 0 1 1 13.988225,1.750502 L 11.5,5.5 z"
       sodipodi:start="0"
       sodipodi:end="5.2982763"
       transform="matrix(0.8660254,0.5,-0.5,0.8660254,29.790708,-4.5131397)" />
    <path
       sodipodi:type="arc"
       style="fill:#ffffff;fill-opacity:1;stroke:none;stroke-width:2;stroke-linecap:butt;stroke-miterlimit:4;stroke-dasharray:none;stroke-opacity:1"
       id="path11502"
       sodipodi:cx="21.5"
       sodipodi:cy="-7.5"
       sodipodi:rx="1.5"
       sodipodi:ry="1.5"
       d="M 23 -7.5 A 1.5 1.5 0 1 1  20,-7.5 A 1.5 1.5 0 1 1  23 -7.5 z"
       transform="translate(23.5,13.5)" />
    <path
       sodipodi:type="arc"
       style="fill:#ffffff;fill-opacity:1;stroke:none;stroke-width:2;stroke-linecap:butt;stroke-miterlimit:4;stroke-dasharray:none;stroke-opacity:1"
       id="path11504"
       sodipodi:cx="21.5"
       sodipodi:cy="-7.5"
       sodipodi:rx="1.5"
       sodipodi:ry="1.5"
       d="M 23 -7.5 A 1.5 1.5 0 1 1  20,-7.5 A 1.5 1.5 0 1 1  23 -7.5 z"
       transform="translate(29.5,13.5)" />
    <path
       sodipodi:type="arc"
       style="fill:#ffffff;fill-opacity:1;stroke:none;stroke-width:2;stroke-linecap:butt;stroke-miterlimit:4;stroke-dasharray:none;stroke-opacity:1"
       id="path11506"
       sodipodi:cx="21.5"
       sodipodi:cy="-7.5"
       sodipodi:rx="1.5"
       sodipodi:ry="1.5"
       d="M 23 -7.5 A 1.5 1.5 0 1 1  20,-7.5 A 1.5 1.5 0 1 1  23 -7.5 z"
       transform="translate(35.5,13.5)" />
    <path
       sodipodi:type="arc"
       style="fill:#fff71e;fill-opacity:1;stroke:none;stroke-width:2;stroke-linecap:butt;stroke-miterlimit:4;stroke-dasharray:none;stroke-opacity:1"
       id="path11508"
       sodipodi:cx="11.5"
       sodipodi:cy="5.5"
       sodipodi:rx="4.5"
       sodipodi:ry="4.5"
       d="M 16,5.5 A 4.5,4.5 0 1 1 13.988225,1.750502 L 11.5,5.5 z"
       sodipodi:start="0"
       sodipodi:end="5.2982763"
       transform="matrix(0.8660254,0.5,-0.5,0.8660254,59.790708,-4.5131397)" />
    <path
       sodipodi:type="arc"
       style="fill:#ffffff;fill-opacity:1;stroke:none;stroke-width:2;stroke-linecap:butt;stroke-miterlimit:4;stroke-dasharray:none;stroke-opacity:1"
       id="path11510"
       sodipodi:cx="21.5"
       sodipodi:cy="-7.5"
       sodipodi:rx="1.5"
       sodipodi:ry="1.5"
       d="M 23 -7.5 A 1.5 1.5 0 1 1  20,-7.5 A 1.5 1.5 0 1 1  23 -7.5 z"
       transform="translate(53.5,13.5)" />
    <path
       sodipodi:type="arc"
       style="fill:#ffffff;fill-opacity:1;stroke:none;stroke-width:2;stroke-linecap:butt;stroke-miterlimit:4;stroke-dasharray:none;stroke-opacity:1"
       id="path11512"
       sodipodi:cx="21.5"
       sodipodi:cy="-7.5"
       sodipodi:rx="1.5"
       sodipodi:ry="1.5"
       d="M 23 -7.5 A 1.5 1.5 0 1 1  20,-7.5 A 1.5 1.5 0 1 1  23 -7.5 z"
       transform="translate(59.5,13.5)" />
    <path
       sodipodi:type="arc"
       style="fill:#ffffff;fill-opacity:1;stroke:none;stroke-width:2;stroke-linecap:butt;stroke-miterlimit:4;stroke-dasharray:none;stroke-opacity:1"
       id="path11514"
       sodipodi:cx="21.5"
       sodipodi:cy="-7.5"
       sodipodi:rx="1.5"
       sodipodi:ry="1.5"
       d="M 23 -7.5 A 1.5 1.5 0 1 1  20,-7.5 A 1.5 1.5 0 1 1  23 -7.5 z"
       transform="translate(65.5,13.5)" />
    <path
       sodipodi:type="arc"
       style="fill:#fff71e;fill-opacity:1;stroke:none;stroke-width:2;stroke-linecap:butt;stroke-miterlimit:4;stroke-dasharray:none;stroke-opacity:1"
       id="path11516"
       sodipodi:cx="11.5"
       sodipodi:cy="5.5"
       sodipodi:rx="4.5"
       sodipodi:ry="4.5"
       d="M 16,5.5 A 4.5,4.5 0 1 1 13.988225,1.750502 L 11.5,5.5 z"
       sodipodi:start="0"
       sodipodi:end="5.2982763"
       transform="matrix(0.8660254,0.5,-0.5,0.8660254,89.790708,-4.5131397)" />
    <path
       sodipodi:type="arc"
       style="fill:#ffffff;fill-opacity:1;stroke:none;stroke-width:2;stroke-linecap:butt;stroke-miterlimit:4;stroke-dasharray:none;stroke-opacity:1"
       id="path11518"
       sodipodi:cx="21.5"
       sodipodi:cy="-7.5"
       sodipodi:rx="1.5"
       sodipodi:ry="1.5"
       d="M 23 -7.5 A 1.5 1.5 0 1 1  20,-7.5 A 1.5 1.5 0 1 1  23 -7.5 z"
       transform="translate(83.5,13.5)" />
    <path
       sodipodi:type="arc"
       style="fill:#ffffff;fill-opacity:1;stroke:none;stroke-width:2;stroke-linecap:butt;stroke-miterlimit:4;stroke-dasharray:none;stroke-opacity:1"
       id="path11520"
       sodipodi:cx="21.5"
       sodipodi:cy="-7.5"
       sodipodi:rx="1.5"
       sodipodi:ry="1.5"
       d="M 23 -7.5 A 1.5 1.5 0 1 1  20,-7.5 A 1.5 1.5 0 1 1  23 -7.5 z"
       transform="translate(89.5,13.5)" />
    <path
       sodipodi:type="arc"
       style="fill:#ffffff;fill-opacity:1;stroke:none;stroke-width:2;stroke-linecap:butt;stroke-miterlimit:4;stroke-dasharray:none;stroke-opacity:1"
       id="path11522"
       sodipodi:cx="21.5"
       sodipodi:cy="-7.5"
       sodipodi:rx="1.5"
       sodipodi:ry="1.5"
       d="M 23 -7.5 A 1.5 1.5 0 1 1  20,-7.5 A 1.5 1.5 0 1 1  23 -7.5 z"
       transform="translate(95.5,13.5)" />
    <path
       sodipodi:type="arc"
       style="fill:#fff71e;fill-opacity:1;stroke:none;stroke-width:2;stroke-linecap:butt;stroke-miterlimit:4;stroke-dasharray:none;stroke-opacity:1"
       id="path11524"
       sodipodi:cx="11.5"
       sodipodi:cy="5.5"
       sodipodi:rx="4.5"
       sodipodi:ry="4.5"
       d="M 16,5.5 A 4.5,4.5 0 1 1 13.988225,1.750502 L 11.5,5.5 z"
       sodipodi:start="0"
       sodipodi:end="5.2982763"
       transform="matrix(0.8660254,0.5,-0.5,0.8660254,119.79071,-4.5131397)" />
    <path
       sodipodi:type="arc"
       style="fill:#ffffff;fill-opacity:1;stroke:none;stroke-width:2;stroke-linecap:butt;stroke-miterlimit:4;stroke-dasharray:none;stroke-opacity:1"
       id="path11526"
       sodipodi:cx="21.5"
       sodipodi:cy="-7.5"
       sodipodi:rx="1.5"
       sodipodi:ry="1.5"
       d="M 23 -7.5 A 1.5 1.5 0 1 1  20,-7.5 A 1.5 1.5 0 1 1  23 -7.5 z"
       transform="translate(113.5,13.5)" />
    <path
       sodipodi:type="arc"
       style="fill:#ffffff;fill-opacity:1;stroke:none;stroke-width:2;stroke-linecap:butt;stroke-miterlimit:4;stroke-dasharray:none;stroke-opacity:1"
       id="path11528"
       sodipodi:cx="21.5"
       sodipodi:cy="-7.5"
       sodipodi:rx="1.5"
       sodipodi:ry="1.5"
       d="M 23 -7.5 A 1.5 1.5 0 1 1  20,-7.5 A 1.5 1.5 0 1 1  23 -7.5 z"
       transform="translate(119.5,13.5)" />
    <path
       sodipodi:type="arc"
       style="fill:#ffffff;fill-opacity:1;stroke:none;stroke-width:2;stroke-linecap:butt;stroke-miterlimit:4;stroke-dasharray:none;stroke-opacity:1"
       id="path11530"
       sodipodi:cx="21.5"
       sodipodi:cy="-7.5"
       sodipodi:rx="1.5"
       sodipodi:ry="1.5"
       d="M 23 -7.5 A 1.5 1.5 0 1 1  20,-7.5 A 1.5 1.5 0 1 1  23 -7.5 z"
       transform="translate(125.5,13.5)" />
    <path
       sodipodi:type="arc"
       style="fill:#fff71e;fill-opacity:1;stroke:none;stroke-width:2;stroke-linecap:butt;stroke-miterlimit:4;stroke-dasharray:none;stroke-opacity:1"
       id="path11532"
       sodipodi:cx="11.5"
       sodipodi:cy="5.5"
       sodipodi:rx="4.5"
       sodipodi:ry="4.5"
       d="M 16,5.5 A 4.5,4.5 0 1 1 13.988225,1.750502 L 11.5,5.5 z"
       sodipodi:start="0"
       sodipodi:end="5.2982763"
       transform="matrix(0.8660254,0.5,-0.5,0.8660254,149.79071,-4.5131397)" />
    <path
       sodipodi:type="arc"
       style="fill:#ffffff;fill-opacity:1;stroke:none;stroke-width:2;stroke-linecap:butt;stroke-miterlimit:4;stroke-dasharray:none;stroke-opacity:1"
       id="path11534"
       sodipodi:cx="21.5"
       sodipodi:cy="-7.5"
       sodipodi:rx="1.5"
       sodipodi:ry="1.5"
       d="M 23 -7.5 A 1.5 1.5 0 1 1  20,-7.5 A 1.5 1.5 0 1 1  23 -7.5 z"
       transform="translate(143.5,13.5)" />
    <path
       sodipodi:type="arc"
       style="fill:#ffffff;fill-opacity:1;stroke:none;stroke-width:2;stroke-linecap:butt;stroke-miterlimit:4;stroke-dasharray:none;stroke-opacity:1"
       id="path11536"
       sodipodi:cx="21.5"
       sodipodi:cy="-7.5"
       sodipodi:rx="1.5"
       sodipodi:ry="1.5"
       d="M 23 -7.5 A 1.5 1.5 0 1 1  20,-7.5 A 1.5 1.5 0 1 1  23 -7.5 z"
       transform="translate(149.5,13.5)" />
    <path
       sodipodi:type="arc"
       style="fill:#ffffff;fill-opacity:1;stroke:none;stroke-width:2;stroke-linecap:butt;stroke-miterlimit:4;stroke-dasharray:none;stroke-opacity:1"
       id="path11538"
       sodipodi:cx="21.5"
       sodipodi:cy="-7.5"
       sodipodi:rx="1.5"
       sodipodi:ry="1.5"
       d="M 23 -7.5 A 1.5 1.5 0 1 1  20,-7.5 A 1.5 1.5 0 1 1  23 -7.5 z"
       transform="translate(155.5,13.5)" />
    <path
       sodipodi:type="arc"
       style="fill:#fff71e;fill-opacity:1;stroke:none;stroke-width:2;stroke-linecap:butt;stroke-miterlimit:4;stroke-dasharray:none;stroke-opacity:1"
       id="path11540"
       sodipodi:cx="11.5"
       sodipodi:cy="5.5"
       sodipodi:rx="4.5"
       sodipodi:ry="4.5"
       d="M 16,5.5 A 4.5,4.5 0 1 1 13.988225,1.750502 L 11.5,5.5 z"
       sodipodi:start="0"
       sodipodi:end="5.2982763"
       transform="matrix(0.8660254,0.5,-0.5,0.8660254,179.79071,-4.5131397)" />
    <path
       sodipodi:type="arc"
       style="fill:#ffffff;fill-opacity:1;stroke:none;stroke-width:2;stroke-linecap:butt;stroke-miterlimit:4;stroke-dasharray:none;stroke-opacity:1"
       id="path11542"
       sodipodi:cx="21.5"
       sodipodi:cy="-7.5"
       sodipodi:rx="1.5"
       sodipodi:ry="1.5"
       d="M 23 -7.5 A 1.5 1.5 0 1 1  20,-7.5 A 1.5 1.5 0 1 1  23 -7.5 z"
       transform="translate(173.5,13.5)" />
    <path
       sodipodi:type="arc"
       style="fill:#ffffff;fill-opacity:1;stroke:none;stroke-width:2;stroke-linecap:butt;stroke-miterlimit:4;stroke-dasharray:none;stroke-opacity:1"
       id="path11544"
       sodipodi:cx="21.5"
       sodipodi:cy="-7.5"
       sodipodi:rx="1.5"
       sodipodi:ry="1.5"
       d="M 23 -7.5 A 1.5 1.5 0 1 1  20,-7.5 A 1.5 1.5 0 1 1  23 -7.5 z"
       transform="translate(179.5,13.5)" />
    <path
       sodipodi:type="arc"
       style="fill:#ffffff;fill-opacity:1;stroke:none;stroke-width:2;stroke-linecap:butt;stroke-miterlimit:4;stroke-dasharray:none;stroke-opacity:1"
       id="path11546"
       sodipodi:cx="21.5"
       sodipodi:cy="-7.5"
       sodipodi:rx="1.5"
       sodipodi:ry="1.5"
       d="M 23 -7.5 A 1.5 1.5 0 1 1  20,-7.5 A 1.5 1.5 0 1 1  23 -7.5 z"
       transform="translate(185.5,13.5)" />
    <path
       sodipodi:type="arc"
       style="fill:#fff71e;fill-opacity:1;stroke:none;stroke-width:2;stroke-linecap:butt;stroke-miterlimit:4;stroke-dasharray:none;stroke-opacity:1"
       id="path11548"
       sodipodi:cx="11.5"
       sodipodi:cy="5.5"
       sodipodi:rx="4.5"
       sodipodi:ry="4.5"
       d="M 16,5.5 A 4.5,4.5 0 1 1 13.988225,1.750502 L 11.5,5.5 z"
       sodipodi:start="0"
       sodipodi:end="5.2982763"
       transform="matrix(0.8660254,0.5,-0.5,0.8660254,209.79071,-4.5131397)" />
    <path
       sodipodi:type="arc"
       style="fill:#ffffff;fill-opacity:1;stroke:none;stroke-width:2;stroke-linecap:butt;stroke-miterlimit:4;stroke-dasharray:none;stroke-opacity:1"
       id="path11550"
       sodipodi:cx="21.5"
       sodipodi:cy="-7.5"
       sodipodi:rx="1.5"
       sodipodi:ry="1.5"
       d="M 23 -7.5 A 1.5 1.5 0 1 1  20,-7.5 A 1.5 1.5 0 1 1  23 -7.5 z"
       transform="translate(203.5,13.5)" />
    <path
       sodipodi:type="arc"
       style="fill:#ffffff;fill-opacity:1;stroke:none;stroke-width:2;stroke-linecap:butt;stroke-miterlimit:4;stroke-dasharray:none;stroke-opacity:1"
       id="path11552"
       sodipodi:cx="21.5"
       sodipodi:cy="-7.5"
       sodipodi:rx="1.5"
       sodipodi:ry="1.5"
       d="M 23 -7.5 A 1.5 1.5 0 1 1  20,-7.5 A 1.5 1.5 0 1 1  23 -7.5 z"
       transform="translate(209.5,13.5)" />
    <path
       sodipodi:type="arc"
       style="fill:#ffffff;fill-opacity:1;stroke:none;stroke-width:2;stroke-linecap:butt;stroke-miterlimit:4;stroke-dasharray:none;stroke-opacity:1"
       id="path11554"
       sodipodi:cx="21.5"
       sodipodi:cy="-7.5"
       sodipodi:rx="1.5"
       sodipodi:ry="1.5"
       d="M 23 -7.5 A 1.5 1.5 0 1 1  20,-7.5 A 1.5 1.5 0 1 1  23 -7.5 z"
       transform="translate(215.5,13.5)" />
    <path
       sodipodi:type="arc"
       style="fill:#fff71e;fill-opacity:1;stroke:none;stroke-width:2;stroke-linecap:butt;stroke-miterlimit:4;stroke-dasharray:none;stroke-opacity:1"
       id="path11556"
       sodipodi:cx="11.5"
       sodipodi:cy="5.5"
       sodipodi:rx="4.5"
       sodipodi:ry="4.5"
       d="M 16,5.5 A 4.5,4.5 0 1 1 13.988225,1.750502 L 11.5,5.5 z"
       sodipodi:start="0"
       sodipodi:end="5.2982763"
       transform="matrix(0.8660254,0.5,-0.5,0.8660254,239.79071,-4.5131397)" />
    <path
       sodipodi:type="arc"
       style="fill:#ffffff;fill-opacity:1;stroke:none;stroke-width:2;stroke-linecap:butt;stroke-miterlimit:4;stroke-dasharray:none;stroke-opacity:1"
       id="path11558"
       sodipodi:cx="21.5"
       sodipodi:cy="-7.5"
       sodipodi:rx="1.5"
       sodipodi:ry="1.5"
       d="M 23 -7.5 A 1.5 1.5 0 1 1  20,-7.5 A 1.5 1.5 0 1 1  23 -7.5 z"
       transform="translate(233.5,13.5)" />
    <path
       sodipodi:type="arc"
       style="fill:#ffffff;fill-opacity:1;stroke:none;stroke-width:2;stroke-linecap:butt;stroke-miterlimit:4;stroke-dasharray:none;stroke-opacity:1"
       id="path11560"
       sodipodi:cx="21.5"
       sodipodi:cy="-7.5"
       sodipodi:rx="1.5"
       sodipodi:ry="1.5"
       d="M 23 -7.5 A 1.5 1.5 0 1 1  20,-7.5 A 1.5 1.5 0 1 1  23 -7.5 z"
       transform="translate(239.5,13.5)" />
    <path
       sodipodi:type="arc"
       style="fill:#ffffff;fill-opacity:1;stroke:none;stroke-width:2;stroke-linecap:butt;stroke-miterlimit:4;stroke-dasharray:none;stroke-opacity:1"
       id="path11562"
       sodipodi:cx="21.5"
       sodipodi:cy="-7.5"
       sodipodi:rx="1.5"
       sodipodi:ry="1.5"
       d="M 23 -7.5 A 1.5 1.5 0 1 1  20,-7.5 A 1.5 1.5 0 1 1  23 -7.5 z"
       transform="translate(245.5,13.5)" />
    <path
       sodipodi:type="arc"
       style="fill:#fff71e;fill-opacity:1;stroke:none;stroke-width:2;stroke-linecap:butt;stroke-miterlimit:4;stroke-dasharray:none;stroke-opacity:1"
       id="path11564"
       sodipodi:cx="11.5"
       sodipodi:cy="5.5"
       sodipodi:rx="4.5"
       sodipodi:ry="4.5"
       d="M 16,5.5 A 4.5,4.5 0 1 1 13.988225,1.750502 L 11.5,5.5 z"
       sodipodi:start="0"
       sodipodi:end="5.2982763"
       transform="matrix(0.8660254,0.5,-0.5,0.8660254,269.79071,-4.5131397)" />
    <path
       sodipodi:type="arc"
       style="fill:#ffffff;fill-opacity:1;stroke:none;stroke-width:2;stroke-linecap:butt;stroke-miterlimit:4;stroke-dasharray:none;stroke-opacity:1"
       id="path11566"
       sodipodi:cx="21.5"
       sodipodi:cy="-7.5"
       sodipodi:rx="1.5"
       sodipodi:ry="1.5"
       d="M 23 -7.5 A 1.5 1.5 0 1 1  20,-7.5 A 1.5 1.5 0 1 1  23 -7.5 z"
       transform="translate(263.5,13.5)" />
    <path
       sodipodi:type="arc"
       style="fill:#ffffff;fill-opacity:1;stroke:none;stroke-width:2;stroke-linecap:butt;stroke-miterlimit:4;stroke-dasharray:none;stroke-opacity:1"
       id="path11568"
       sodipodi:cx="21.5"
       sodipodi:cy="-7.5"
       sodipodi:rx="1.5"
       sodipodi:ry="1.5"
       d="M 23 -7.5 A 1.5 1.5 0 1 1  20,-7.5 A 1.5 1.5 0 1 1  23 -7.5 z"
       transform="translate(269.5,13.5)" />
    <path
       sodipodi:type="arc"
       style="fill:#ffffff;fill-opacity:1;stroke:none;stroke-width:2;stroke-linecap:butt;stroke-miterlimit:4;stroke-dasharray:none;stroke-opacity:1"
       id="path11570"
       sodipodi:cx="21.5"
       sodipodi:cy="-7.5"
       sodipodi:rx="1.5"
       sodipodi:ry="1.5"
       d="M 23 -7.5 A 1.5 1.5 0 1 1  20,-7.5 A 1.5 1.5 0 1 1  23 -7.5 z"
       transform="translate(275.5,13.5)" />
  </g>
</svg>
